<svg width="77" height="77" viewBox="0 0 77 77" fill="none" xmlns="http://www.w3.org/2000/svg">
  <path d="M54.9055 15.1932V8.82655C54.9055 6.93803 53.483 5.28455 51.5985 5.15892C49.5317 5.02113 47.8052 6.66245 47.8052 8.70092V15.1892H29.1956V8.70092C29.1956 6.66245 27.4691 5.01708 25.4023 5.15892C23.5178 5.28455 22.0954 6.93803 22.0954 8.82655V15.1932H10.2292V71.845H66.7716V15.1932H54.9055ZM48.9724 8.70498C48.9724 7.39192 50.0423 6.32203 51.3554 6.32203C52.6684 6.32203 53.7383 7.39192 53.7383 8.70498V15.1932H48.9724V8.70498ZM23.2625 8.70498C23.2625 7.39192 24.3324 6.32203 25.6455 6.32203C26.9585 6.32203 28.0284 7.39192 28.0284 8.70498V15.1932H23.2625V8.70498ZM65.6044 70.6778H61.649H11.3964V30.1677H65.6044V70.6778ZM65.6044 29.0006H11.3964V16.3644H65.6044V29.0006Z" fill="#D6CECE" />
  <path d="M25.6456 26.2125C27.603 26.2125 29.1957 24.6198 29.1957 22.6624C29.1957 20.705 27.603 19.1123 25.6456 19.1123C23.6881 19.1123 22.0955 20.705 22.0955 22.6624C22.0955 24.6198 23.6881 26.2125 25.6456 26.2125ZM25.6456 20.2754C26.9586 20.2754 28.0285 21.3453 28.0285 22.6584C28.0285 23.9714 26.9586 25.0413 25.6456 25.0413C24.3325 25.0413 23.2626 23.9714 23.2626 22.6584C23.2626 21.3453 24.3325 20.2754 25.6456 20.2754Z" fill="#D6CECE" />
  <path d="M51.3555 26.2125C53.3129 26.2125 54.9056 24.6198 54.9056 22.6624C54.9056 20.705 53.3129 19.1123 51.3555 19.1123C49.3981 19.1123 47.8054 20.705 47.8054 22.6624C47.8054 24.6198 49.3981 26.2125 51.3555 26.2125ZM51.3555 20.2754C52.6686 20.2754 53.7385 21.3453 53.7385 22.6584C53.7385 23.9714 52.6686 25.0413 51.3555 25.0413C50.0425 25.0413 48.9726 23.9714 48.9726 22.6584C48.9726 21.3453 50.0425 20.2754 51.3555 20.2754Z" fill="#D6CECE" />
  <path d="M35.1938 22.0752H34.0266V23.2424H35.1938V22.0752Z" fill="#D6CECE" />
  <path d="M43.0395 22.0752H41.8723V23.2424H43.0395V22.0752Z" fill="#D6CECE" />
  <path d="M39.0839 22.0752H37.9167V23.2424H39.0839V22.0752Z" fill="#D6CECE" />
  <path d="M28.5472 40.3198V57.9447H32.454V35.6836H29.4996L23.7854 39.0189L25.4348 42.1921L28.5472 40.3198Z" fill="#0A65FF" />
  <path d="M44.3889 58.2605C49.7222 58.2605 53.2156 53.5918 53.2156 46.828C53.2156 40.0641 49.9451 35.3955 44.3889 35.3955C38.8328 35.3955 35.5947 40.1249 35.5947 46.828C35.5947 53.531 38.8652 58.2605 44.3889 58.2605ZM44.3889 39.1118C47.4689 39.1118 49.1508 41.8432 49.1508 46.828C49.1508 51.8127 47.4689 54.5766 44.3889 54.5766C41.3089 54.5766 39.6595 51.8451 39.6595 46.828C39.6595 41.8108 41.3414 39.1118 44.3889 39.1118Z" fill="#0A65FF" />
  <path d="M29.0985 62.8038L27.68 60.583H26.521L28.5919 63.7643V65.8717H29.5767V63.7724L31.6395 60.583H30.529L29.0985 62.8038Z" fill="#D6CECE" />
  <path d="M33.1754 63.6508H35.4489V62.7431H33.1754V61.503H35.7002V60.583H32.2068V65.8717H35.7366V64.9477H33.1754V63.6508Z" fill="#D6CECE" />
  <path d="M38.1319 60.583L36.061 65.8717H37.0823L37.5038 64.7451H39.8097L40.2312 65.8717H41.2889L39.2261 60.583H38.1319ZM37.828 63.8778L38.6507 61.6732L39.4815 63.8778H37.828Z" fill="#D6CECE" />
  <path d="M45.9491 62.1515C45.9491 61.1911 45.2399 60.5791 44.0079 60.5791H41.8843V65.8678H42.8529V63.8415H44.3726C44.7414 63.8415 44.9602 64.0522 44.9602 64.4251V65.8678H45.941V64.3643C45.941 63.8496 45.6613 63.4565 45.1993 63.2903C45.6775 63.0472 45.9491 62.65 45.9491 62.1475V62.1515ZM43.9228 62.9661H42.8488V61.4869H43.9228C44.6482 61.4869 44.944 61.6976 44.944 62.2204C44.944 62.7432 44.6482 62.9702 43.9228 62.9702V62.9661Z" fill="#D6CECE" />
  <path d="M48.656 62.7432C47.8009 62.5527 47.6064 62.3947 47.6064 62.034C47.6064 61.5882 47.9306 61.3856 48.4696 61.3856C48.96 61.3856 49.3612 61.6328 49.5112 62.0502L50.3784 61.6936C50.115 60.9519 49.4342 60.498 48.4453 60.498C47.4565 60.498 46.6257 61.1465 46.6257 62.0178C46.6257 62.8891 47.0715 63.3308 48.3724 63.6429C49.2883 63.8617 49.499 64.036 49.499 64.4372C49.499 64.8911 49.0775 65.0654 48.5304 65.0654C47.8658 65.0654 47.4565 64.7614 47.2903 64.2508L46.4514 64.6358C46.7148 65.4504 47.4929 65.9488 48.5385 65.9488C49.657 65.9488 50.4797 65.3085 50.4797 64.3602C50.4797 63.497 49.9367 63.0391 48.6601 62.7432H48.656Z" fill="#D6CECE" />
</svg>