<svg width="77" height="77" viewBox="0 0 77 77" fill="none" xmlns="http://www.w3.org/2000/svg">
  <path d="M36.0785 21.9828L36.5992 19.6695C36.6581 19.4043 36.5697 19.1244 36.3634 18.9476L34.5806 17.3808L36.943 17.1598C37.2131 17.1352 37.4488 16.9633 37.5569 16.7129L38.495 14.5371L39.433 16.7129C39.5411 16.9633 39.7768 17.1352 40.047 17.1598L42.4094 17.3808L40.6265 18.9476C40.4202 19.1293 40.3318 19.4043 40.3908 19.6695L40.9114 21.9828L38.8731 20.7697C38.6374 20.6322 38.3476 20.6322 38.1119 20.7697L36.0736 21.9828H36.0785Z" fill="#D6CECE" />
  <path d="M34.5805 24.2265L35.4989 20.1549C35.553 19.9241 35.4744 19.6834 35.2976 19.5263L32.1592 16.771L36.3191 16.3879C36.5549 16.3682 36.7563 16.216 36.8496 15.9999L38.4998 12.1641L40.15 15.9999C40.2434 16.216 40.4496 16.3633 40.6805 16.3879L44.8355 16.771L41.6971 19.5263C41.5203 19.6834 41.4417 19.9241 41.4958 20.15L42.4142 24.2216L38.824 22.09C38.6226 21.9672 38.3672 21.9672 38.1658 22.09L34.5756 24.2216L34.5805 24.2265Z" fill="#0A65FF" />
  <path d="M49.8253 64.3379C49.7123 64.3379 49.6042 64.3772 49.5158 64.4558L47.5415 66.1993H29.4576L27.4832 64.4607C27.3998 64.387 27.2868 64.3428 27.1738 64.3428H0.47049C0.215096 64.3428 0.00390625 64.554 0.00390625 64.8094V67.7808C0.00390625 69.6766 1.54609 71.2188 3.44189 71.2188H73.5621C75.4579 71.2188 77.0001 69.6766 77.0001 67.7808V64.8094C77.0001 64.554 76.7889 64.3428 76.5335 64.3428H49.8253V64.3379ZM76.0669 67.7759C76.0669 69.156 74.9422 70.2807 73.5621 70.2807H3.43698C2.05688 70.2807 0.932163 69.156 0.932163 67.7759V65.2711H26.997L28.9714 67.0097C29.0549 67.0834 29.1679 67.1276 29.2808 67.1276H47.7133C47.8263 67.1276 47.9344 67.0883 48.0228 67.0097L49.9972 65.2711H76.062V67.7759H76.0669Z" fill="#D6CECE" />
  <path d="M72.5262 21.6579H49.8158L49.973 20.764C49.9975 20.6363 50.0172 20.5037 50.0368 20.376L50.1007 19.934L50.5181 19.7719C54.0494 18.4262 55.7095 14.7082 55.4443 8.72612C55.4345 8.47563 55.2282 8.27918 54.9777 8.27918H50.1547V6.25076C50.1547 5.99537 49.9435 5.78418 49.6881 5.78418H27.3117C27.0563 5.78418 26.8451 5.99537 26.8451 6.25076V8.27918H22.0221C21.7717 8.27918 21.5654 8.47563 21.5555 8.72612C21.2952 14.7082 22.9504 18.4262 26.4817 19.7719L26.8992 19.934L26.963 20.376C26.9827 20.5086 27.0023 20.6363 27.0269 20.764L27.184 21.6579H4.47366C4.21827 21.6579 4.00708 21.8691 4.00708 22.1244V61.5483C4.00708 61.8037 4.21827 62.0149 4.47366 62.0149H72.5213C72.7766 62.0149 72.9878 61.8037 72.9878 61.5483V22.1244C72.9878 21.8691 72.7766 21.6579 72.5213 21.6579H72.5262ZM50.1547 9.21234H54.5406V9.97361C54.5406 14.1483 53.4895 16.8692 51.3334 18.3034L50.1498 19.0892V9.21234H50.1547ZM26.85 19.0892L25.6664 18.3034C23.5103 16.8692 22.4642 14.1483 22.4592 9.97361V9.21234H26.8451V19.0892H26.85ZM27.7832 6.71735H49.2264V18.7257C49.2264 24.6391 44.4182 29.4474 38.5048 29.4474C32.5915 29.4474 27.7832 24.6391 27.7832 18.7257V6.71735ZM43.6716 38.7397H33.3429V36.0434H43.6716V38.7397ZM43.9418 39.6729L46.702 42.5215H30.3077L33.0679 39.6729H43.9368H43.9418ZM35.8821 35.1102L36.5796 33.956C37.0658 33.1506 37.3506 32.1781 37.4341 31.0681L37.4882 30.3461L38.328 30.3658C38.4803 30.3707 38.6227 30.3658 38.77 30.3658L39.5853 30.3412L39.6492 31.0583C39.7523 32.2125 40.0225 33.1948 40.4547 33.9855L41.0735 35.1151H35.887L35.8821 35.1102ZM36.5108 30.8618C36.4076 32.8166 35.6562 34.177 34.2073 35.012L34.0305 35.1151H32.8764C32.621 35.1151 32.4098 35.3263 32.4098 35.5817V39.0197L28.8736 42.664C28.7409 42.7966 28.7066 42.9979 28.7802 43.1698C28.8539 43.3417 29.0209 43.4547 29.2075 43.4547H47.8021C47.9888 43.4547 48.1607 43.3417 48.2294 43.1698C48.2982 42.9979 48.2638 42.7966 48.1361 42.664L44.5999 39.0197V35.5817C44.5999 35.3263 44.3887 35.1151 44.1333 35.1151H42.9595L42.8023 35.0365C41.4762 34.3931 40.7199 32.9934 40.5529 30.8717L40.5038 30.2185L41.1423 30.0711C43.0823 29.6193 44.8847 28.6714 46.3582 27.3207L46.5743 27.1194H67.2022V56.5387H9.79763V27.1194H30.4256L30.6417 27.3207C32.1298 28.6812 33.947 29.634 35.9067 30.0809L36.5304 30.2234L36.4961 30.8618H36.5108ZM72.0694 61.0768H4.94025V22.5861H27.4934L27.685 23.0625C27.96 23.7403 28.2989 24.3984 28.6967 25.0173L29.4531 26.1911H9.32614C9.07074 26.1911 8.85955 26.4023 8.85955 26.6577V57.0102C8.85955 57.2656 9.07074 57.4768 9.32614 57.4768H67.6639C67.9193 57.4768 68.1305 57.2656 68.1305 57.0102V26.6577C68.1305 26.4023 67.9193 26.1911 67.6639 26.1911H47.5369L48.2933 25.0173C48.6911 24.3984 49.03 23.7452 49.305 23.0625L49.4966 22.5861H72.0498V61.0768H72.0694Z" fill="#D6CECE" />
</svg>