<svg width="77" height="77" viewBox="0 0 77 77" fill="none" xmlns="http://www.w3.org/2000/svg">
  <path d="M28.1694 4.06055C27.217 4.06055 26.447 4.83055 26.447 5.78292V16.1131C26.447 17.0654 27.217 17.8354 28.1694 17.8354H36.7812V26.4473C36.7812 27.3997 37.5512 28.1697 38.5036 28.1697H48.8338C49.7861 28.1697 50.5561 27.3997 50.5561 26.4473V17.8354H59.168C60.1203 17.8354 60.8903 17.0654 60.8903 16.1131V5.78292C60.8903 4.83055 60.1203 4.06055 59.168 4.06055H48.8378C47.8854 4.06055 47.1154 4.83055 47.1154 5.78292V14.3948H40.226V5.78292C40.226 4.83055 39.456 4.06055 38.5036 4.06055H28.1734H28.1694Z" stroke="#D6CECE" stroke-miterlimit="10" />
  <path d="M12.6682 28.1699C11.7158 28.1699 10.9458 28.9399 10.9458 29.8923V71.221C10.9458 72.1734 11.7158 72.9434 12.6682 72.9434H64.3271C65.2794 72.9434 66.0494 72.1734 66.0494 71.221V29.8923C66.0494 28.9399 65.2794 28.1699 64.3271 28.1699H53.9969C53.0445 28.1699 52.2745 28.9399 52.2745 29.8923V38.5041H35.0549V29.8923C35.0549 28.9399 34.2849 28.1699 33.3325 28.1699H12.6682ZM24.7207 31.6147H31.6102V38.5041H24.7207V31.6147ZM14.3905 41.9448H21.28V48.8343H14.3905V41.9448ZM35.0549 41.9448H41.9444V48.8343H35.0549V41.9448ZM55.7193 41.9448H62.6088V48.8343H55.7193V41.9448ZM24.7247 52.275H31.6142V59.1644H24.7247V52.275ZM45.3891 52.275H52.2786V59.1644H45.3891V52.275ZM14.3946 62.6051H21.2841V69.4946H14.3946V62.6051ZM35.059 62.6051H41.9484V69.4946H35.059V62.6051ZM55.7233 62.6051H62.6128V69.4946H55.7233V62.6051Z" stroke="#D6CECE" stroke-miterlimit="10" />
  <path d="M47.1114 17.8359H40.2219V24.7254H47.1114V17.8359Z" fill="#0A65FF" />
</svg>